<svg width="279" height="205" viewBox="0 0 279 205" fill="none" xmlns="http://www.w3.org/2000/svg">
<path d="M229.01 83.3744C228.845 82.3188 227.858 81.596 226.8 81.7608C225.746 81.9257 225.024 82.9179 225.189 83.9736C225.468 85.7773 225.819 91.4264 223.872 93.6994C223.451 94.1908 222.942 94.4856 222.302 94.6029L222.479 83.8436C222.505 82.2807 221.248 81 219.684 81C218.114 81 216.851 82.2966 216.889 83.8689L217.396 104.288C216.725 104.18 216.196 103.885 215.759 103.375C213.812 101.102 214.167 95.4525 214.442 93.6487C214.607 92.593 213.885 91.6008 212.831 91.436C211.774 91.2711 210.786 91.9939 210.622 93.0495C210.482 93.9372 209.365 101.85 212.818 105.888C214.005 107.277 215.614 108.066 217.491 108.187L217.709 117.076H221.929L222.236 98.5053C224.072 98.3626 225.642 97.5796 226.81 96.2133C230.267 92.1746 229.149 84.2652 229.01 83.3744Z" fill="#BDBDBD"/>
<path d="M48.8782 100.686C48.7737 100.014 48.1438 99.5516 47.4696 99.6593C46.7985 99.764 46.3363 100.395 46.4439 101.07C46.6212 102.221 46.846 105.822 45.6051 107.271C45.336 107.585 45.0131 107.772 44.6048 107.848L44.7188 100.988C44.7346 99.9922 43.9337 99.1743 42.9366 99.1743C41.9363 99.1743 41.1323 100.002 41.1544 101.003L41.4773 114.02C41.05 113.95 40.7113 113.763 40.4359 113.44C39.195 111.991 39.4197 108.39 39.597 107.239C39.7015 106.567 39.2425 105.933 38.5714 105.828C37.8971 105.724 37.2672 106.183 37.1627 106.855C37.0741 107.423 36.3619 112.463 38.5619 115.041C39.3184 115.925 40.3441 116.429 41.5406 116.505L41.6799 122.17H44.3706L44.5668 110.333C45.7349 110.241 46.7383 109.743 47.4822 108.872C49.6791 106.294 48.9668 101.251 48.8782 100.686Z" fill="#BDBDBD"/>
<path d="M139.123 204.126C215.958 204.126 278.246 182.043 278.246 154.803C278.246 127.562 215.958 105.479 139.123 105.479C62.2875 105.479 0 127.562 0 154.803C0 182.043 62.2875 204.126 139.123 204.126Z" fill="url(#paint0_linear)"/>
<path opacity="0.4" d="M132.994 145.193C168.068 145.193 196.501 137.285 196.501 127.531C196.501 117.777 168.068 109.869 132.994 109.869C97.9202 109.869 69.4873 117.777 69.4873 127.531C69.4873 137.285 97.9202 145.193 132.994 145.193Z" fill="url(#paint1_radial)"/>
<g opacity="0.2">
<g opacity="0.2">
<path opacity="0.2" d="M71.5631 100.511H73.8468C73.534 100.206 73.3399 99.7331 73.3399 99.2525C73.3399 98.2885 74.1191 97.4947 75.0816 97.4947C75.3566 97.4947 75.6182 97.5514 75.8473 97.6648C76.055 96.123 77.3734 94.9322 78.9696 94.9322C79.1421 94.9322 79.3093 94.9457 79.4711 94.97C79.587 94.9511 79.7056 94.9376 79.8243 94.9322C80.3177 94.3328 81.0295 93.9224 81.8356 93.8144C82.0594 90.7011 84.3323 88.1576 87.3116 87.5257C87.3224 87.523 87.3332 87.5203 87.3413 87.5176C87.4141 87.5014 87.4869 87.4879 87.5624 87.4771C87.5894 87.4717 87.6163 87.4663 87.646 87.4636C87.7134 87.4528 87.7808 87.442 87.8482 87.4339C87.8832 87.4285 87.9156 87.4258 87.9507 87.4204C88.0154 87.4123 88.0828 87.4069 88.1475 87.3988C88.1852 87.3961 88.2203 87.3934 88.258 87.3907C88.3227 87.3853 88.3901 87.3799 88.4548 87.3772C88.4845 87.3772 88.5115 87.3772 88.5411 87.3745C88.6112 87.3718 88.6786 87.3691 88.7514 87.3691C92.5827 87.3691 95.6861 90.4797 95.6861 94.3166C95.6861 94.5299 95.678 94.7378 95.6591 94.9457C95.7885 94.9295 95.9234 94.9403 96.0582 94.9403C97.7972 94.9403 99.21 96.3795 99.21 98.1346C99.21 98.8988 98.935 99.536 98.4794 100.119C98.3742 100.254 98.2583 100.349 98.1369 100.503H100.386C100.701 100.503 100.954 100.684 100.954 100.999C100.954 101.315 100.698 101.496 100.386 101.496H92.0759H71.5577C71.2422 101.496 70.9888 101.315 70.9888 100.999C70.9888 100.684 71.2476 100.511 71.5631 100.511Z" fill="white"/>
<path opacity="0.2" d="M69.7649 100.454C70.0695 100.454 70.3149 100.7 70.3149 101.005C70.3149 101.31 70.0695 101.556 69.7649 101.556C69.6004 101.556 69.4521 101.483 69.3523 101.369C69.2661 101.272 69.2148 101.145 69.2148 101.005C69.2148 100.703 69.4602 100.454 69.7649 100.454Z" fill="white"/>
<path opacity="0.2" d="M97.4172 94.4786C97.1125 94.4786 96.8672 94.2329 96.8672 93.9278C96.8672 93.6227 97.1125 93.377 97.4172 93.377C97.7219 93.377 97.9672 93.6227 97.9672 93.9278C97.9672 94.2302 97.7219 94.4786 97.4172 94.4786Z" fill="white"/>
<path opacity="0.2" d="M102.378 100.703C102.683 100.703 102.928 100.948 102.928 101.253C102.928 101.559 102.683 101.804 102.378 101.804C102.073 101.804 101.828 101.559 101.828 101.253C101.828 100.948 102.073 100.703 102.378 100.703Z" fill="white"/>
</g>
</g>
<path d="M156.725 53.2548L159.31 48.7331C160.689 48.8757 162.068 48.8869 163.432 48.7706L165.905 53.4274L170.798 52.0727L170.529 46.9619C171.983 46.3202 173.369 45.521 174.662 44.5716L178.888 47.2433L182.467 43.6335L179.728 39.367C180.166 38.729 180.578 38.0686 180.96 37.3744C181.343 36.6764 181.68 35.9672 181.983 35.243L186.978 35.2618L188.091 30.301L183.628 28.1997C183.733 26.5749 183.658 24.9538 183.411 23.3628L187.806 20.8674L186.315 16.0079L181.114 16.4207C180.469 15.1937 179.709 14.0267 178.832 12.9309L181.226 8.35295L177.341 5.07706L173.406 8.08653C173.02 7.84262 172.627 7.60246 172.219 7.38107C171.432 6.94954 170.63 6.57804 169.817 6.25158L169.761 1.04693L164.788 0L162.664 4.69056C161.48 4.63428 160.299 4.6793 159.13 4.81439L156.721 0.0112573L151.801 1.26082L151.966 6.897C151.093 7.32103 150.246 7.80134 149.433 8.33794L144.633 5.41478L141.122 9.08843L144.015 13.4338C143.378 14.2818 142.79 15.1824 142.265 16.143C141.733 17.1149 141.283 18.1093 140.913 19.1187L135.76 19.0137L134.558 23.9556L139.552 26.4135C139.537 27.4079 139.59 28.3948 139.71 29.3742L134.917 32.241L136.514 37.0704L141.827 36.5263C142.348 37.5883 142.951 38.6127 143.64 39.5846L140.845 43.8887L144.397 47.521L148.819 44.7592C149.516 45.2545 150.243 45.7198 151.011 46.1401C151.434 46.3728 151.861 46.5829 152.292 46.7855L151.876 51.7463L156.725 53.2548ZM146.454 18.447C151.048 10.0528 161.57 6.9758 169.955 11.5801C178.341 16.1843 181.414 26.7174 176.816 35.1154C172.222 43.5134 161.701 46.5867 153.315 41.9862C144.933 37.3819 141.86 26.845 146.454 18.447Z" fill="#0A4F7B"/>
<path d="M124.658 36.2225L125.317 35.0705C125.67 35.1081 126.022 35.1081 126.37 35.0818L127 36.2713L128.248 35.9261L128.18 34.6202C128.551 34.4551 128.903 34.2525 129.237 34.0086L130.316 34.6915L131.23 33.7722L130.53 32.684C130.642 32.5226 130.747 32.3538 130.844 32.1736C130.942 31.9935 131.028 31.8134 131.103 31.6295L132.377 31.6333L132.662 30.3687L131.522 29.8321C131.549 29.4156 131.53 29.0028 131.466 28.5976L132.587 27.9596L132.204 26.7213L130.878 26.8264C130.713 26.515 130.518 26.2148 130.297 25.9371L130.908 24.7701L129.919 23.9333L128.915 24.7025C128.817 24.6387 128.716 24.5787 128.611 24.5224C128.409 24.4136 128.206 24.316 127.997 24.2335L127.982 22.9051L126.715 22.6387L126.172 23.8357C125.868 23.8207 125.568 23.8319 125.269 23.8657L124.654 22.6424L123.399 22.9614L123.44 24.3986C123.219 24.5074 123.002 24.6275 122.796 24.7663L121.57 24.0196L120.675 24.9577L121.413 26.0647C121.252 26.2823 121.098 26.5112 120.967 26.7551C120.832 27.0028 120.716 27.2579 120.622 27.5131L119.307 27.4868L119 28.7477L120.274 29.3743C120.27 29.6295 120.285 29.8809 120.315 30.1286L119.094 30.8603L119.502 32.0911L120.859 31.9523C120.993 32.2224 121.147 32.4851 121.323 32.7328L120.611 33.8322L121.518 34.7591L122.646 34.0536C122.822 34.1812 123.009 34.2975 123.204 34.4064C123.313 34.4664 123.421 34.5189 123.53 34.5715L123.425 35.836L124.658 36.2225ZM122.792 27.7533C123.736 26.0271 125.898 25.3967 127.622 26.3423C129.345 27.288 129.979 29.4531 129.031 31.1792C128.086 32.9054 125.924 33.5358 124.201 32.5902C122.481 31.6445 121.848 29.4794 122.792 27.7533Z" fill="#0A4F7B"/>
<path d="M184.329 72.6436L184.921 70.2796C185.562 70.1707 186.184 69.9981 186.783 69.773L188.488 71.5554L190.523 70.3246L189.754 68.0544C190.328 67.5778 190.852 67.0449 191.313 66.4521L193.558 67.12L194.712 65.0411L192.936 63.4689C193.052 63.1274 193.157 62.7747 193.239 62.4144C193.322 62.0504 193.385 61.6864 193.43 61.3262L195.682 60.6995L195.555 58.3242L193.277 57.9453C193.119 57.1985 192.879 56.478 192.565 55.7951L194.228 54.114L192.939 52.1139L190.65 52.962C190.204 52.4929 189.713 52.0614 189.181 51.6787L189.68 49.3109L187.514 48.3277L186.124 50.1852C185.918 50.1252 185.711 50.0651 185.498 50.0163C185.089 49.9225 184.681 49.855 184.273 49.8137L183.587 47.4722L181.215 47.6335L180.852 50.0163C180.312 50.1402 179.784 50.3128 179.274 50.5192L177.58 48.6617L175.523 49.8512L176.314 52.3691C175.973 52.6693 175.654 52.9958 175.355 53.341L172.822 52.6355L171.705 54.7369L173.56 56.3279C173.38 56.7895 173.23 57.2698 173.114 57.7689C172.998 58.2755 172.923 58.7783 172.882 59.2811L170.547 59.889L170.63 62.2681L173.193 62.7409C173.313 63.1912 173.463 63.6302 173.639 64.0542L171.844 65.9567L173.174 67.9305L175.497 67.0074C175.864 67.4202 176.269 67.8029 176.704 68.1557L175.992 70.4484L178.053 71.6342L179.694 69.8293C180.068 69.9643 180.458 70.0807 180.855 70.1745C181.076 70.227 181.294 70.2645 181.515 70.3021L181.957 72.5911L184.329 72.6436ZM178.281 58.9547C178.907 56.2416 181.608 54.553 184.318 55.1759C187.027 55.8026 188.717 58.5081 188.091 61.2211C187.465 63.9342 184.763 65.6265 182.054 64.9999C179.345 64.3732 177.655 61.6677 178.281 58.9547Z" fill="#0A4F7B"/>
<path d="M121.047 137.84L87.9346 119.801L88.0559 54.7083L121.168 72.7479L121.047 137.84Z" fill="#F2973E"/>
<path d="M121.168 72.7478L88.0557 54.7082L148.278 46.2324L181.391 64.2721L121.168 72.7478Z" fill="url(#paint2_linear)"/>
<path d="M181.391 64.272L181.27 129.364L121.047 137.84L121.168 72.7477L181.391 64.272Z" fill="url(#paint3_linear)"/>
<path d="M121.168 72.7478L88.0557 54.7082L148.278 46.2324L181.391 64.2721L121.168 72.7478Z" fill="url(#paint4_linear)"/>
<path d="M148.278 46.2324L148.195 68.919L181.391 64.2721L148.278 46.2324Z" fill="url(#paint5_linear)"/>
<g opacity="0.2">
<path opacity="0.0196" d="M181.223 65.1929L181.334 89.3591L132.125 98.2912L121.168 72.7479L181.223 65.1929Z" fill="#FAFAFA"/>
<path opacity="0.0392" d="M181.215 65.1819L181.326 89.2537L132.244 98.1695L121.168 72.7477L181.215 65.1819Z" fill="#F5F5F5"/>
<path opacity="0.0588" d="M181.21 65.1685L181.318 89.1511L132.36 98.0508L121.168 72.7478L181.21 65.1685Z" fill="#F0F0F0"/>
<path opacity="0.0784" d="M181.202 65.1577L181.312 89.0486L132.479 97.9293L121.168 72.7478L181.202 65.1577Z" fill="#EBEBEB"/>
<path opacity="0.098" d="M181.196 65.1443L181.304 88.946L132.595 97.8079L121.168 72.7506L181.196 65.1443Z" fill="#E6E6E6"/>
<path opacity="0.1176" d="M181.188 65.1306L181.296 88.8433L132.71 97.6862L121.168 72.7504L181.188 65.1306Z" fill="#E1E1E1"/>
<path opacity="0.1373" d="M181.183 65.1199L181.288 88.738L132.829 97.5648L121.168 72.7505L181.183 65.1199Z" fill="#DCDCDC"/>
<path opacity="0.1569" d="M181.175 65.1064L181.283 88.6355L132.945 97.4434L121.168 72.7506L181.175 65.1064Z" fill="#D7D7D7"/>
<path opacity="0.1765" d="M181.17 65.0957L181.275 88.533L133.064 97.3219L121.168 72.7506L181.17 65.0957Z" fill="#D2D2D2"/>
<path opacity="0.1961" d="M181.161 65.082L181.267 88.4302L133.18 97.2002L121.168 72.7504L181.161 65.082Z" fill="#CDCDCD"/>
<path opacity="0.2157" d="M181.156 65.0686L181.259 88.3249L133.298 97.0815L121.168 72.7532L181.156 65.0686Z" fill="#C8C8C8"/>
<path opacity="0.2353" d="M181.151 65.0579L181.253 88.2224L133.414 96.96L121.168 72.7533L181.151 65.0579Z" fill="#C3C3C3"/>
<path opacity="0.2549" d="M181.143 65.0444L181.245 88.1199L133.53 96.8386L121.168 72.7533L181.143 65.0444Z" fill="#BEBEBE"/>
<path opacity="0.2745" d="M181.137 65.0334L181.237 88.0171L133.649 96.7169L121.168 72.7532L181.137 65.0334Z" fill="#B9B9B9"/>
<path opacity="0.2941" d="M181.129 65.02L181.229 87.9118L133.765 96.5955L121.168 72.7532L181.129 65.02Z" fill="#B4B4B4"/>
<path opacity="0.3137" d="M181.124 65.0066L181.224 87.8093L133.884 96.474L121.171 72.7533L181.124 65.0066Z" fill="#AFAFAF"/>
<path opacity="0.3333" d="M181.116 64.9956L181.216 87.7065L133.999 96.3524L121.171 72.7558L181.116 64.9956Z" fill="#AAAAAA"/>
<path opacity="0.3529" d="M181.11 64.9822L181.208 87.604L134.115 96.2336L121.171 72.7559L181.11 64.9822Z" fill="#A5A5A5"/>
<path opacity="0.3725" d="M181.102 64.9714L181.199 87.5014L134.234 96.1122L121.171 72.7559L181.102 64.9714Z" fill="#A0A0A0"/>
<path opacity="0.3922" d="M181.097 64.9578L181.194 87.396L134.35 95.9905L121.171 72.7558L181.097 64.9578Z" fill="#9B9B9B"/>
<path opacity="0.4118" d="M181.089 64.9443L181.186 87.2934L134.469 95.869L121.171 72.7558L181.089 64.9443Z" fill="#969696"/>
<path opacity="0.4314" d="M181.083 64.9336L181.178 87.1909L134.585 95.7476L121.171 72.7559L181.083 64.9336Z" fill="#919191"/>
<path opacity="0.451" d="M181.075 64.9202L181.17 87.0883L134.703 95.6262L121.171 72.7587L181.075 64.9202Z" fill="#8C8C8C"/>
<path opacity="0.4706" d="M181.07 64.9092L181.164 86.9828L134.819 95.5045L121.171 72.7585L181.07 64.9092Z" fill="#878787"/>
<path opacity="0.4902" d="M181.065 64.8958L181.156 86.8803L134.935 95.3858L121.171 72.7586L181.065 64.8958Z" fill="#828282"/>
<path opacity="0.5098" d="M181.057 64.8823L181.148 86.7778L135.054 95.2643L121.171 72.7586L181.057 64.8823Z" fill="#7D7D7D"/>
<path opacity="0.5294" d="M181.051 64.8716L181.143 86.6752L135.17 95.1429L121.171 72.7587L181.051 64.8716Z" fill="#787878"/>
<path opacity="0.549" d="M181.043 64.8579L181.135 86.5697L135.288 95.0212L121.171 72.7612L181.043 64.8579Z" fill="#737373"/>
<path opacity="0.5686" d="M181.038 64.8472L181.127 86.4672L135.404 94.8998L121.171 72.7613L181.038 64.8472Z" fill="#6E6E6E"/>
<path opacity="0.5882" d="M181.03 64.8337L181.119 86.3647L135.52 94.7783L121.171 72.7614L181.03 64.8337Z" fill="#696969"/>
<path opacity="0.6078" d="M181.024 64.8201L181.113 86.2619L135.639 94.6566L121.171 72.7612L181.024 64.8201Z" fill="#646464"/>
<path opacity="0.6275" d="M181.016 64.8093L181.105 86.1594L135.755 94.5352L121.171 72.7612L181.016 64.8093Z" fill="#5F5F5F"/>
<path opacity="0.6471" d="M181.011 64.7959L181.097 86.0541L135.873 94.4165L121.171 72.7613L181.011 64.7959Z" fill="#5A5A5A"/>
<path opacity="0.6667" d="M181.003 64.7852L181.089 85.9516L135.989 94.295L121.171 72.7641L181.003 64.7852Z" fill="#555555"/>
<path opacity="0.6863" d="M180.997 64.7715L181.084 85.8488L136.108 94.1733L121.171 72.7639L180.997 64.7715Z" fill="#505050"/>
<path opacity="0.7059" d="M180.989 64.7581L181.075 85.7463L136.224 94.0519L121.171 72.764L180.989 64.7581Z" fill="#4B4B4B"/>
<path opacity="0.7255" d="M180.984 64.7473L181.067 85.641L136.34 93.9305L121.171 72.764L180.984 64.7473Z" fill="#464646"/>
<path opacity="0.7451" d="M180.978 64.7339L181.059 85.5385L136.458 93.809L121.171 72.7641L180.978 64.7339Z" fill="#414141"/>
<path opacity="0.7647" d="M180.97 64.7229L181.054 85.4357L136.574 93.6873L121.171 72.7639L180.97 64.7229Z" fill="#3C3C3C"/>
<path opacity="0.7843" d="M180.965 64.7095L181.046 85.3332L136.693 93.5686L121.171 72.7667L180.965 64.7095Z" fill="#373737"/>
<path opacity="0.8039" d="M180.957 64.696L181.038 85.2279L136.809 93.4472L121.171 72.7668L180.957 64.696Z" fill="#323232"/>
<path opacity="0.8235" d="M180.951 64.6851L181.03 85.1251L136.925 93.3255L121.171 72.7666L180.951 64.6851Z" fill="#2D2D2D"/>
<path opacity="0.8431" d="M180.943 64.6716L181.024 85.0226L137.044 93.204L121.171 72.7667L180.943 64.6716Z" fill="#282828"/>
<path opacity="0.8627" d="M180.938 64.6609L181.016 84.9201L137.159 93.0826L121.171 72.7667L180.938 64.6609Z" fill="#232323"/>
<path opacity="0.8824" d="M180.93 64.6475L181.008 84.8175L137.278 92.9612L121.171 72.7668L180.93 64.6475Z" fill="#1E1E1E"/>
<path opacity="0.902" d="M180.924 64.6338L181 84.7121L137.394 92.8395L121.171 72.7693L180.924 64.6338Z" fill="#191919"/>
<path opacity="0.9216" d="M180.916 64.623L180.995 84.6095L137.513 92.7207L121.171 72.7694L180.916 64.623Z" fill="#141414"/>
<path opacity="0.9412" d="M180.911 64.6096L180.986 84.507L137.629 92.5993L121.171 72.7694L180.911 64.6096Z" fill="#0F0F0F"/>
<path opacity="0.9608" d="M180.903 64.5989L180.978 84.4044L137.745 92.4778L121.171 72.7695L180.903 64.5989Z" fill="#0A0A0A"/>
<path opacity="0.9804" d="M180.897 64.5845L180.97 84.2982L137.862 92.3554L121.173 72.7686L180.897 64.5845Z" fill="#050505"/>
<path opacity="0.2" d="M180.891 64.5718L180.964 84.1964L137.978 92.2347L121.172 72.7721L180.891 64.5718Z" fill="black"/>
</g>
<g opacity="0.2">
<path opacity="0.0196" d="M88.064 54.7271L88.0936 85.0091L105.786 95.2859L121.173 72.7694L88.064 54.7271Z" fill="#FAFAFA"/>
<path opacity="0.0392" d="M88.0723 54.7458L88.0884 84.955L105.765 95.2129L121.171 72.7693L88.0723 54.7458Z" fill="#F5F5F5"/>
<path opacity="0.0588" d="M88.0776 54.7673L88.0857 84.9036L105.741 95.1426L121.171 72.7692L88.0776 54.7673Z" fill="#F0F0F0"/>
<path opacity="0.0784" d="M88.0855 54.7864L88.0801 84.8524L105.719 95.0698L121.171 72.7693L88.0855 54.7864Z" fill="#EBEBEB"/>
<path opacity="0.098" d="M88.0938 54.8052L88.0776 84.7984L105.697 94.9995L121.171 72.7692L88.0938 54.8052Z" fill="#E6E6E6"/>
<path opacity="0.1176" d="M88.0992 54.824L88.0723 84.747L105.676 94.9265L121.171 72.7664L88.0992 54.824Z" fill="#E1E1E1"/>
<path opacity="0.1373" d="M88.1071 54.843L88.0693 84.6958L105.654 94.8564L121.171 72.7666L88.1071 54.843Z" fill="#DCDCDC"/>
<path opacity="0.1569" d="M88.1154 54.8621L88.0669 84.6446L105.63 94.7836L121.171 72.7667L88.1154 54.8621Z" fill="#D7D7D7"/>
<path opacity="0.1765" d="M88.1208 54.8835L88.0615 84.5905L105.608 94.7133L121.171 72.7666L88.1208 54.8835Z" fill="#D2D2D2"/>
<path opacity="0.1961" d="M88.1287 54.9023L88.0586 84.5391L105.587 94.6403L121.171 72.7665L88.1287 54.9023Z" fill="#CDCDCD"/>
<path opacity="0.2157" d="M88.1368 54.9214L88.0532 84.4879L105.565 94.5703L121.171 72.7666L88.1368 54.9214Z" fill="#C8C8C8"/>
<path opacity="0.2353" d="M88.1452 54.9402L88.0508 84.4338L105.544 94.4973L121.171 72.7638L88.1452 54.9402Z" fill="#C3C3C3"/>
<path opacity="0.2549" d="M88.1506 54.959L88.0454 84.3824L105.52 94.4243L121.171 72.7637L88.1506 54.959Z" fill="#BEBEBE"/>
<path opacity="0.2745" d="M88.1584 54.9807L88.0425 84.3313L105.498 94.3542L121.171 72.7639L88.1584 54.9807Z" fill="#B9B9B9"/>
<path opacity="0.2941" d="M88.1665 54.9998L88.0371 84.2801L105.476 94.2814L121.171 72.764L88.1665 54.9998Z" fill="#B4B4B4"/>
<path opacity="0.3137" d="M88.1722 55.0186L88.0347 84.226L105.455 94.2111L121.171 72.7639L88.1722 55.0186Z" fill="#AFAFAF"/>
<path opacity="0.3333" d="M88.18 55.0374L88.0317 84.1746L105.433 94.1381L121.171 72.7638L88.18 55.0374Z" fill="#AAAAAA"/>
<path opacity="0.3529" d="M88.1881 55.0564L88.0264 84.1234L105.409 94.068L121.171 72.7612L88.1881 55.0564Z" fill="#A5A5A5"/>
<path opacity="0.3725" d="M88.196 55.0779L88.0234 84.0693L105.387 93.995L121.171 72.7611L88.196 55.0779Z" fill="#A0A0A0"/>
<path opacity="0.3922" d="M88.2014 55.0967L88.0181 84.0179L105.366 93.9247L121.171 72.761L88.2014 55.0967Z" fill="#9B9B9B"/>
<path opacity="0.4118" d="M88.2097 55.1157L88.0156 83.9667L105.344 93.852L121.171 72.7612L88.2097 55.1157Z" fill="#969696"/>
<path opacity="0.4314" d="M88.2179 55.1348L88.0103 83.9129L105.323 93.7819L121.171 72.7613L88.2179 55.1348Z" fill="#919191"/>
<path opacity="0.451" d="M88.223 55.1536L88.0073 83.8615L105.298 93.7089L121.171 72.7612L88.223 55.1536Z" fill="#8C8C8C"/>
<path opacity="0.4706" d="M88.2311 55.175L88.002 83.8101L105.277 93.6386L121.171 72.7584L88.2311 55.175Z" fill="#878787"/>
<path opacity="0.4902" d="M88.2395 55.1941L87.9995 83.7589L105.255 93.5658L121.171 72.7585L88.2395 55.1941Z" fill="#828282"/>
<path opacity="0.5098" d="M88.2449 55.2129L87.9941 83.7048L105.234 93.4955L121.171 72.7584L88.2449 55.2129Z" fill="#7D7D7D"/>
<path opacity="0.5294" d="M88.2527 55.2317L87.9912 83.6534L105.212 93.4225L121.171 72.7583L88.2527 55.2317Z" fill="#787878"/>
<path opacity="0.549" d="M88.2611 55.2507L87.9888 83.6022L105.188 93.3524L121.171 72.7585L88.2611 55.2507Z" fill="#737373"/>
<path opacity="0.5686" d="M88.2692 55.2725L87.9834 83.5483L105.166 93.2796L121.171 72.7559L88.2692 55.2725Z" fill="#6E6E6E"/>
<path opacity="0.5882" d="M88.2744 55.2913L87.9805 83.497L105.145 93.2067L121.171 72.7558L88.2744 55.2913Z" fill="#696969"/>
<path opacity="0.6078" d="M88.2825 55.3101L87.9751 83.4455L105.123 93.1364L121.171 72.7557L88.2825 55.3101Z" fill="#646464"/>
<path opacity="0.6275" d="M88.2908 55.3291L87.9727 83.3917L105.102 93.0636L121.171 72.7558L88.2908 55.3291Z" fill="#5F5F5F"/>
<path opacity="0.6471" d="M88.2962 55.3479L87.9673 83.3403L105.077 92.9933L121.171 72.7557L88.2962 55.3479Z" fill="#5A5A5A"/>
<path opacity="0.6667" d="M88.3041 55.3667L87.9644 83.2889L105.056 92.9203L121.171 72.7556L88.3041 55.3667Z" fill="#555555"/>
<path opacity="0.6863" d="M88.3122 55.3884L87.959 83.2377L105.034 92.8502L121.171 72.753L88.3122 55.3884Z" fill="#505050"/>
<path opacity="0.7059" d="M88.32 55.4075L87.9561 83.1838L105.012 92.7774L121.168 72.7532L88.32 55.4075Z" fill="#4B4B4B"/>
<path opacity="0.7255" d="M88.3257 55.4263L87.9536 83.1324L104.991 92.7071L121.168 72.7531L88.3257 55.4263Z" fill="#464646"/>
<path opacity="0.7451" d="M88.3338 55.4451L87.9482 83.081L104.967 92.6341L121.168 72.753L88.3338 55.4451Z" fill="#414141"/>
<path opacity="0.7647" d="M88.3417 55.4641L87.9453 83.0272L104.945 92.5641L121.168 72.7531L88.3417 55.4641Z" fill="#3C3C3C"/>
<path opacity="0.7843" d="M88.3471 55.4856L87.9399 82.9757L104.923 92.491L121.168 72.753L88.3471 55.4856Z" fill="#373737"/>
<path opacity="0.8039" d="M88.3554 55.5046L87.9375 82.9246L104.902 92.421L121.168 72.7505L88.3554 55.5046Z" fill="#323232"/>
<path opacity="0.8235" d="M88.3635 55.5234L87.9321 82.8732L104.881 92.348L121.168 72.7503L88.3635 55.5234Z" fill="#2D2D2D"/>
<path opacity="0.8431" d="M88.3687 55.5425L87.9292 82.8193L104.856 92.2779L121.168 72.7505L88.3687 55.5425Z" fill="#282828"/>
<path opacity="0.8627" d="M88.3768 55.5613L87.9238 82.7679L104.834 92.2049L121.168 72.7504L88.3768 55.5613Z" fill="#232323"/>
<path opacity="0.8824" d="M88.3851 55.5828L87.9214 82.7165L104.813 92.1319L121.168 72.7503L88.3851 55.5828Z" fill="#1E1E1E"/>
<path opacity="0.902" d="M88.393 55.6018L87.9185 82.6626L104.791 92.0618L121.168 72.7504L88.393 55.6018Z" fill="#191919"/>
<path opacity="0.9216" d="M88.3984 55.6206L87.9131 82.6112L104.77 91.9888L121.168 72.7476L88.3984 55.6206Z" fill="#141414"/>
<path opacity="0.9412" d="M88.4067 55.6396L87.9106 82.5601L104.746 91.9188L121.168 72.7477L88.4067 55.6396Z" fill="#0F0F0F"/>
<path opacity="0.9608" d="M88.4149 55.6584L87.9053 82.506L104.724 91.8458L121.168 72.7476L88.4149 55.6584Z" fill="#0A0A0A"/>
<path opacity="0.9804" d="M88.42 55.6802L87.9023 82.4548L104.702 91.7757L121.168 72.7478L88.42 55.6802Z" fill="#050505"/>
<path opacity="0.2" d="M88.4281 55.699L87.897 82.4034L104.681 91.7027L121.168 72.7477L88.4281 55.699Z" fill="black"/>
</g>
<path d="M134.482 27.8281L148.279 46.2323L88.0721 54.7188L74.1138 35.1671L134.482 27.8281Z" fill="url(#paint6_linear)"/>
<path d="M148.279 46.2323L163.518 28.9595L197.164 46.5185L181.391 64.2719L148.279 46.2323Z" fill="url(#paint7_linear)"/>
<path opacity="0.9" d="M101.928 31.8244C101.928 31.8244 102.99 29.856 97.5225 28.0307L99.6686 27.866L99.763 27.2828H100.75L100.712 26.7211L102.346 27.1424L101.853 26.1568L103.713 26.767L103.637 26.2351L105.536 27.5285L105.004 26.0083L106.56 26.9588C106.56 26.9588 108.952 29.6967 108.116 31.0279L101.928 31.8244Z" fill="url(#paint8_linear)"/>
<path d="M119.354 123.745C119.354 123.745 119.785 124.852 119.931 125.239C120.074 125.625 120.122 126.972 120.122 127.453C120.122 127.933 119.737 128.703 119.882 129.089C120.025 129.475 119.402 130.388 119.402 130.388L119.114 129.907L119.017 128.946C119.017 128.946 119.16 128.271 119.017 127.985C118.874 127.696 118.825 126.926 118.825 126.78C118.825 126.637 118.825 126.105 118.728 125.962C118.631 125.819 118.2 125.625 118.391 125.482C118.583 125.336 118.777 124.615 118.92 124.472C119.065 124.323 119.354 123.745 119.354 123.745Z" fill="#F2973E"/>
<path d="M123.991 119.514L124.838 119.463C124.838 119.463 125.062 119.687 124.937 119.887C124.813 120.087 125.013 119.838 124.813 120.211C124.614 120.583 124.29 120.808 124.166 120.61C124.042 120.411 123.867 120.087 123.918 120.014C123.967 119.935 123.991 119.514 123.991 119.514Z" fill="#F2973E"/>
<path d="M126.547 90.2339L126.278 90.5012C126.278 90.5012 126.137 90.4931 126.118 90.3878C126.102 90.2852 126.108 90.4256 126.065 90.242C126.021 90.0584 126.065 89.8856 126.164 89.918C126.264 89.9477 126.418 90.0044 126.423 90.0449C126.431 90.0854 126.547 90.2339 126.547 90.2339Z" fill="#F2973E"/>
<path d="M121.13 72.8044C121.13 74.7701 121.009 76.8007 121.13 78.7772C121.187 79.7195 121.23 80.7402 121.23 81.7365C121.23 82.9138 121.5 83.9506 121.546 85.0442C121.6 85.055 121.656 85.0658 121.71 85.0793C121.807 86.343 121.899 87.9738 121.527 89.143C121.141 90.3527 121.397 91.8026 120.915 92.9178C120.861 92.9286 120.804 92.9394 120.75 92.9529C120.707 94.222 120.251 95.5126 120.664 96.8087C121.063 98.0589 121.147 99.5602 121.039 100.913C120.81 103.78 121.238 106.502 121.233 109.372C121.23 110.952 120.637 112.378 120.944 113.947C123.007 114.227 120.796 117.365 120.64 118.553C120.508 119.552 120.605 120.637 120.529 121.639C120.47 122.46 120.516 123.905 121.252 124.426C120.055 124.461 120.836 126.067 120.96 126.686C121.136 127.553 121.082 128.457 121.13 129.364C121.179 130.269 121.376 131.281 121.141 132.159C120.942 132.899 120.257 133.768 120.338 134.611C120.375 135.002 120.863 135.348 120.985 135.729C121.138 136.212 121.033 136.868 121.033 137.381L121.13 72.8044Z" fill="#F2973E"/>
<path d="M121.033 121.053H121.61L121.804 120.497L121.13 120.389L121.033 121.053Z" fill="#F2973E"/>
<path d="M122.956 110.974H123.204L123.287 110.72L122.996 110.679L122.956 110.974Z" fill="#F2973E"/>
<path d="M114.97 127.534L116.07 128.085C116.07 128.085 117.17 127.993 117.261 128.268C117.353 128.544 117.17 128.819 116.436 128.819C115.703 128.819 114.878 128.452 114.878 128.452L114.97 127.534Z" fill="#F2973E"/>
<path d="M175.292 124.323L174.475 124.372C174.475 124.372 174.259 124.156 174.378 123.964C174.499 123.772 174.305 124.013 174.499 123.651C174.691 123.289 175.003 123.073 175.125 123.265C175.246 123.456 175.413 123.77 175.365 123.842C175.316 123.913 175.292 124.323 175.292 124.323Z" fill="#F2973E"/>
<path d="M180.159 122.884H179.563L179.363 123.467L180.059 123.575L180.159 122.884Z" fill="#F2973E"/>
<path d="M162.423 125.449L162.617 126.21L163.394 126.281L163.315 125.354L162.423 125.449Z" fill="#F2973E"/>
<path d="M179.76 93.5551L178.565 92.9584C178.565 92.9584 177.371 93.0583 177.271 92.7586C177.172 92.4589 177.371 92.1619 178.166 92.1619C178.962 92.1619 179.857 92.5615 179.857 92.5615L179.76 93.5551Z" fill="#F2973E"/>
<path d="M123.22 84.2638L123.915 85.1603L124.314 84.064C124.314 84.064 124.514 83.3673 124.015 83.2674C123.516 83.1675 122.92 82.7706 122.92 83.2674C122.92 83.7643 123.22 84.2638 123.22 84.2638Z" fill="#F2973E"/>
<path d="M122.824 92.3346L123.12 93.1311L123.819 92.1348L122.824 92.3346Z" fill="#F2973E"/>
<path d="M177.149 100.864L177.419 100.597C177.419 100.597 177.559 100.608 177.578 100.71C177.594 100.813 177.589 100.673 177.632 100.856C177.675 101.04 177.632 101.213 177.532 101.18C177.433 101.15 177.279 101.094 177.273 101.053C177.265 101.015 177.149 100.864 177.149 100.864Z" fill="#F2973E"/>
<path d="M180.08 111.619L179.385 110.722L178.986 111.819C178.986 111.819 178.786 112.515 179.285 112.615C179.784 112.715 180.38 113.115 180.38 112.615C180.377 112.118 180.08 111.619 180.08 111.619Z" fill="#F2973E"/>
<path d="M180.876 98.7665L180.576 97.9673L179.881 98.9663L180.876 98.7665Z" fill="#F2973E"/>
<path d="M171.52 123.529C171.663 123.554 172.723 123.456 172.122 123.986C171.52 124.515 172.097 124.539 171.137 124.755C170.178 124.971 170.056 125.382 169.671 124.971C169.285 124.561 169.166 124.585 169.118 124.275C169.069 123.961 171.377 123.505 171.52 123.529Z" fill="#F2973E"/>
<g opacity="0.2">
<path opacity="0.2" d="M136.264 88.1117L122.746 72.4994L162.566 66.8723L186.81 81.9715L136.264 88.1117Z" fill="black"/>
</g>
<g opacity="0.2">
<path opacity="0.0196" d="M137.227 90.2771L118.583 70.7361L179.18 61.6934L195.357 81.2721L137.227 90.2771Z" fill="#FAFAFA"/>
<path opacity="0.0392" d="M137.211 90.2636L118.666 70.7983L179.129 61.7744L195.212 81.3153L137.211 90.2636Z" fill="#F5F5F5"/>
<path opacity="0.0588" d="M137.197 90.2526L118.75 70.8575L179.08 61.8525L195.063 81.3584L137.197 90.2526Z" fill="#F0F0F0"/>
<path opacity="0.0784" d="M137.183 90.2419L118.833 70.9197L179.029 61.9309L194.918 81.4016L137.183 90.2419Z" fill="#EBEBEB"/>
<path opacity="0.098" d="M137.17 90.2312L118.917 70.9819L178.981 62.0093L194.77 81.4449L137.17 90.2312Z" fill="#E6E6E6"/>
<path opacity="0.1176" d="M137.157 90.2175L119 71.0438L178.932 62.0874L194.621 81.4879L137.157 90.2175Z" fill="#E1E1E1"/>
<path opacity="0.1373" d="M137.141 90.2067L119.084 71.1032L178.881 62.1685L194.476 81.5339L137.141 90.2067Z" fill="#DCDCDC"/>
<path opacity="0.1569" d="M137.127 90.196L119.167 71.1654L178.832 62.2468L194.327 81.5771L137.127 90.196Z" fill="#D7D7D7"/>
<path opacity="0.1765" d="M137.113 90.1853L119.251 71.2276L178.783 62.3252L194.181 81.6204L137.113 90.1853Z" fill="#D2D2D2"/>
<path opacity="0.1961" d="M137.1 90.1716L119.335 71.2895L178.733 62.4033L194.034 81.6634L137.1 90.1716Z" fill="#CDCDCD"/>
<path opacity="0.2157" d="M137.087 90.1608L119.418 71.3489L178.684 62.4844L193.885 81.7067L137.087 90.1608Z" fill="#C8C8C8"/>
<path opacity="0.2353" d="M137.07 90.1501L119.502 71.4111L178.633 62.5627L193.74 81.7499L137.07 90.1501Z" fill="#C3C3C3"/>
<path opacity="0.2549" d="M137.057 90.1394L119.586 71.4733L178.584 62.6411L193.592 81.7932L137.057 90.1394Z" fill="#BEBEBE"/>
<path opacity="0.2745" d="M137.044 90.1257L119.669 71.5352L178.536 62.7192L193.446 81.839L137.044 90.1257Z" fill="#B9B9B9"/>
<path opacity="0.2941" d="M137.03 90.1149L119.753 71.5947L178.485 62.8003L193.298 81.8822L137.03 90.1149Z" fill="#B4B4B4"/>
<path opacity="0.3137" d="M137.017 90.1042L119.836 71.6568L178.436 62.8787L193.149 81.9255L137.017 90.1042Z" fill="#AFAFAF"/>
<path opacity="0.3333" d="M137.003 90.0935L119.92 71.719L178.385 62.957L193.004 81.9687L137.003 90.0935Z" fill="#AAAAAA"/>
<path opacity="0.3529" d="M136.987 90.0798L120.003 71.7782L178.336 63.0352L192.855 82.0118L136.987 90.0798Z" fill="#A5A5A5"/>
<path opacity="0.3725" d="M136.973 90.069L120.087 71.8404L178.287 63.1162L192.709 82.055L136.973 90.069Z" fill="#A0A0A0"/>
<path opacity="0.3922" d="M136.96 90.0583L120.17 71.9025L178.236 63.1946L192.561 82.0983L136.96 90.0583Z" fill="#9B9B9B"/>
<path opacity="0.4118" d="M136.947 90.0475L120.254 71.9647L178.188 63.2729L192.413 82.1442L136.947 90.0475Z" fill="#969696"/>
<path opacity="0.4314" d="M136.933 90.0341L120.338 72.0242L178.137 63.3513L192.268 82.1875L136.933 90.0341Z" fill="#919191"/>
<path opacity="0.451" d="M136.917 90.0231L120.421 72.0861L178.088 63.4321L192.119 82.2305L136.917 90.0231Z" fill="#8C8C8C"/>
<path opacity="0.4706" d="M136.903 90.0124L120.505 72.1483L178.039 63.5105L191.973 82.2738L136.903 90.0124Z" fill="#878787"/>
<path opacity="0.4902" d="M136.89 90.0017L120.588 72.2104L177.988 63.5889L191.825 82.3171L136.89 90.0017Z" fill="#828282"/>
<path opacity="0.5098" d="M136.876 89.9882L120.672 72.2699L177.939 63.6672L191.677 82.3603L136.876 89.9882Z" fill="#7D7D7D"/>
<path opacity="0.5294" d="M136.863 89.9772L120.756 72.3318L177.889 63.748L191.532 82.4033L136.863 89.9772Z" fill="#787878"/>
<path opacity="0.549" d="M136.847 89.9665L120.839 72.394L177.84 63.8264L191.383 82.4493L136.847 89.9665Z" fill="#737373"/>
<path opacity="0.5686" d="M136.833 89.9557L120.923 72.4561L177.791 63.9048L191.237 82.4926L136.833 89.9557Z" fill="#6E6E6E"/>
<path opacity="0.5882" d="M136.82 89.9421L121.007 72.5154L177.741 63.9829L191.09 82.5356L136.82 89.9421Z" fill="#696969"/>
<path opacity="0.6078" d="M136.807 89.9313L121.09 72.5775L177.692 64.0613L190.941 82.5789L136.807 89.9313Z" fill="#646464"/>
<path opacity="0.6275" d="M136.793 89.9206L121.174 72.6397L177.641 64.1423L190.796 82.6221L136.793 89.9206Z" fill="#5F5F5F"/>
<path opacity="0.6471" d="M136.779 89.9099L121.257 72.7019L177.592 64.2207L190.647 82.6654L136.779 89.9099Z" fill="#5A5A5A"/>
<path opacity="0.6667" d="M136.763 89.8964L121.341 72.7613L177.543 64.2991L190.501 82.7086L136.763 89.8964Z" fill="#555555"/>
<path opacity="0.6863" d="M136.75 89.8855L121.424 72.8232L177.492 64.3772L190.353 82.7544L136.75 89.8855Z" fill="#505050"/>
<path opacity="0.7059" d="M136.736 89.8747L121.508 72.8854L177.444 64.4583L190.205 82.7976L136.736 89.8747Z" fill="#4B4B4B"/>
<path opacity="0.7255" d="M136.722 89.864L121.591 72.9449L177.395 64.5366L190.059 82.8409L136.722 89.864Z" fill="#464646"/>
<path opacity="0.7451" d="M136.709 89.853L121.675 73.0068L177.344 64.6147L189.911 82.8839L136.709 89.853Z" fill="#414141"/>
<path opacity="0.7647" d="M136.693 89.8395L121.759 73.069L177.295 64.6931L189.765 82.9272L136.693 89.8395Z" fill="#3C3C3C"/>
<path opacity="0.7843" d="M136.68 89.8288L121.842 73.1311L177.244 64.7742L189.617 82.9704L136.68 89.8288Z" fill="#373737"/>
<path opacity="0.8039" d="M136.666 89.8181L121.926 73.1906L177.195 64.8525L189.469 83.0137L136.666 89.8181Z" fill="#323232"/>
<path opacity="0.8235" d="M136.652 89.8071L122.009 73.2525L177.147 64.9307L189.323 83.0594L136.652 89.8071Z" fill="#2D2D2D"/>
<path opacity="0.8431" d="M136.639 89.7936L122.093 73.3147L177.096 65.009L189.175 83.1027L136.639 89.7936Z" fill="#282828"/>
<path opacity="0.8627" d="M136.623 89.7829L122.177 73.3768L177.047 65.0901L189.029 83.1459L136.623 89.7829Z" fill="#232323"/>
<path opacity="0.8824" d="M136.61 89.7722L122.26 73.4363L176.996 65.1685L188.881 83.1892L136.61 89.7722Z" fill="#1E1E1E"/>
<path opacity="0.902" d="M136.596 89.7614L122.344 73.4985L176.947 65.2468L188.733 83.2325L136.596 89.7614Z" fill="#191919"/>
<path opacity="0.9216" d="M136.583 89.7477L122.428 73.5604L176.899 65.325L188.587 83.2755L136.583 89.7477Z" fill="#141414"/>
<path opacity="0.9412" d="M136.569 89.737L122.511 73.6225L176.848 65.406L188.439 83.3187L136.569 89.737Z" fill="#0F0F0F"/>
<path opacity="0.9608" d="M136.556 89.7262L122.595 73.682L176.799 65.4844L188.293 83.3647L136.556 89.7262Z" fill="#0A0A0A"/>
<path opacity="0.9804" d="M136.539 89.7153L122.678 73.7439L176.748 65.5625L188.145 83.4077L136.539 89.7153Z" fill="#050505"/>
<path opacity="0.2" d="M136.526 89.7018L122.762 73.8061L176.699 65.6409L187.997 83.451L136.526 89.7018Z" fill="black"/>
</g>
<path d="M121.653 72.7477L169.002 66.4887C163.415 60.1677 149.694 55.699 133.652 55.699C119.869 55.699 107.798 58.9986 101.13 63.9371L121.047 72.8071L121.653 72.7477Z" fill="#0A4F7B"/>
<path d="M126.706 67.1234C128.294 67.1234 129.58 65.8354 129.58 64.2451C129.58 62.6547 128.294 61.3667 126.706 61.3667C125.118 61.3667 123.832 62.6547 123.832 64.2451C123.832 65.8327 125.118 67.1234 126.706 67.1234ZM126.706 63.192C127.286 63.192 127.755 63.6618 127.755 64.2423C127.755 64.8229 127.286 65.2927 126.706 65.2927C126.127 65.2927 125.657 64.8229 125.657 64.2423C125.657 63.6618 126.127 63.192 126.706 63.192Z" fill="white"/>
<path d="M126.706 65.2926C127.285 65.2926 127.755 64.8224 127.755 64.2423C127.755 63.6622 127.285 63.1919 126.706 63.1919C126.127 63.1919 125.657 63.6622 125.657 64.2423C125.657 64.8224 126.127 65.2926 126.706 65.2926Z" fill="url(#paint9_linear)"/>
<path d="M141.42 67.1234C143.008 67.1234 144.294 65.8354 144.294 64.2451C144.294 62.6547 143.008 61.3667 141.42 61.3667C139.831 61.3667 138.545 62.6547 138.545 64.2451C138.545 65.8327 139.831 67.1234 141.42 67.1234ZM141.42 63.192C141.999 63.192 142.468 63.6618 142.468 64.2423C142.468 64.8229 141.999 65.2927 141.42 65.2927C140.84 65.2927 140.371 64.8229 140.371 64.2423C140.371 63.6618 140.84 63.192 141.42 63.192Z" fill="white"/>
<path d="M141.419 65.2926C141.999 65.2926 142.468 64.8224 142.468 64.2423C142.468 63.6622 141.999 63.1919 141.419 63.1919C140.84 63.1919 140.371 63.6622 140.371 64.2423C140.371 64.8224 140.84 65.2926 141.419 65.2926Z" fill="url(#paint10_linear)"/>
<path d="M73.0542 72.1403L88.0721 54.719L121.168 72.7478L104.813 91.638L73.0542 72.1403Z" fill="url(#paint11_linear)"/>
<path d="M181.391 64.272L196.568 82.3872L136.453 93.1662L121.168 72.7477L181.391 64.272Z" fill="url(#paint12_linear)"/>
<path opacity="0.9" d="M160.625 88.7543C160.625 88.7543 167.354 88.8731 168.468 81.7231L168.942 83.0948L169.595 81.4477L170.366 82.1336L170.959 79.8006L171.612 81.7204L172.501 80.0733L172.976 81.3073L174.399 78.699C174.399 78.699 174.222 85.3035 172.383 86.5375C170.541 87.7796 160.625 88.7543 160.625 88.7543Z" fill="url(#paint13_linear)"/>
<defs>
<linearGradient id="paint0_linear" x1="139.124" y1="83.1222" x2="139.124" y2="160.576" gradientUnits="userSpaceOnUse">
<stop stop-color="#E5E5E5"/>
<stop offset="0.4764" stop-color="#F4F4F4"/>
<stop offset="1" stop-color="white"/>
</linearGradient>
<radialGradient id="paint1_radial" cx="0" cy="0" r="1" gradientUnits="userSpaceOnUse" gradientTransform="translate(132.995 127.531) rotate(180) scale(63.5068 17.6615)">
<stop stop-color="#14243E"/>
<stop offset="0.1235" stop-color="#2A3850"/>
<stop offset="0.3809" stop-color="#636D7F"/>
<stop offset="0.747" stop-color="#BDC1C9"/>
<stop offset="1" stop-color="white"/>
</radialGradient>
<linearGradient id="paint2_linear" x1="151.374" y1="72.9165" x2="120.692" y2="48.248" gradientUnits="userSpaceOnUse">
<stop offset="0.00537636" stop-color="#EE8236"/>
<stop offset="1" stop-color="#F4A343"/>
</linearGradient>
<linearGradient id="paint3_linear" x1="149.215" y1="71.7303" x2="153.107" y2="128.525" gradientUnits="userSpaceOnUse">
<stop stop-color="#F2973E"/>
<stop offset="1" stop-color="#FCBD51"/>
</linearGradient>
<linearGradient id="paint4_linear" x1="151.374" y1="72.9165" x2="120.692" y2="48.248" gradientUnits="userSpaceOnUse">
<stop offset="0.00537636" stop-color="#EE8236"/>
<stop offset="1" stop-color="#F4A343"/>
</linearGradient>
<linearGradient id="paint5_linear" x1="165.688" y1="49.8743" x2="160.699" y2="81.1607" gradientUnits="userSpaceOnUse">
<stop offset="0.00537636" stop-color="#EE8236"/>
<stop offset="1" stop-color="#CD6200"/>
</linearGradient>
<linearGradient id="paint6_linear" x1="133.04" y1="70.2872" x2="101.739" y2="28.679" gradientUnits="userSpaceOnUse">
<stop stop-color="#F2973E"/>
<stop offset="1" stop-color="#FCBD51"/>
</linearGradient>
<linearGradient id="paint7_linear" x1="163.62" y1="58.4873" x2="178.772" y2="38.3801" gradientUnits="userSpaceOnUse">
<stop stop-color="#F2973E"/>
<stop offset="1" stop-color="#FCBD51"/>
</linearGradient>
<linearGradient id="paint8_linear" x1="103.938" y1="33.399" x2="102.608" y2="27.8215" gradientUnits="userSpaceOnUse">
<stop offset="0.0269" stop-color="#C69C6D"/>
<stop offset="0.2874" stop-color="#D1A87A"/>
<stop offset="0.7644" stop-color="#ECC99B"/>
<stop offset="1" stop-color="#FCDCAE"/>
</linearGradient>
<linearGradient id="paint9_linear" x1="125.656" y1="64.2433" x2="127.756" y2="64.2433" gradientUnits="userSpaceOnUse">
<stop stop-color="#322928"/>
<stop offset="1" stop-color="#4B3D3C"/>
</linearGradient>
<linearGradient id="paint10_linear" x1="140.37" y1="64.2433" x2="142.47" y2="64.2433" gradientUnits="userSpaceOnUse">
<stop stop-color="#322928"/>
<stop offset="1" stop-color="#4B3D3C"/>
</linearGradient>
<linearGradient id="paint11_linear" x1="101.863" y1="67.0278" x2="76.3494" y2="95.8882" gradientUnits="userSpaceOnUse">
<stop stop-color="#FCBD51"/>
<stop offset="1" stop-color="#F2D150"/>
</linearGradient>
<linearGradient id="paint12_linear" x1="153.95" y1="68.0969" x2="169.508" y2="97.9721" gradientUnits="userSpaceOnUse">
<stop stop-color="#FCBD51"/>
<stop offset="1" stop-color="#F2D150"/>
</linearGradient>
<linearGradient id="paint13_linear" x1="165.452" y1="92.5052" x2="168.195" y2="82.742" gradientUnits="userSpaceOnUse">
<stop offset="0.0269" stop-color="#C69C6D"/>
<stop offset="0.2874" stop-color="#D1A87A"/>
<stop offset="0.7644" stop-color="#ECC99B"/>
<stop offset="1" stop-color="#FCDCAE"/>
</linearGradient>
</defs>
</svg>
