<?xml version="1.0" encoding="utf-8"?>
<!-- Generator: Adobe Illustrator 23.0.0, SVG Export Plug-In . SVG Version: 6.00 Build 0)  -->
<svg version="1.1" xmlns="http://www.w3.org/2000/svg" xmlns:xlink="http://www.w3.org/1999/xlink" x="0px" y="0px"
	 viewBox="0 0 551.74 401.48" style="enable-background:new 0 0 551.74 401.48;" xml:space="preserve">
<style type="text/css">
	.st0{display:none;}
	.st1{display:inline;fill:#E9FDFF;}
	.st2{opacity:0.37;fill:url(#SVGID_1_);}
	.st3{opacity:0.37;fill:url(#SVGID_2_);}
	.st4{fill:url(#SVGID_3_);}
	.st5{fill:url(#SVGID_4_);}
	.st6{opacity:0.5;fill:url(#SVGID_5_);}
	.st7{fill:url(#SVGID_6_);}
	.st8{fill:url(#SVGID_7_);}
	.st9{fill:#E9FDFF;}
	.st10{fill:#EDA462;}
	.st11{fill:#DD9B5E;}
	.st12{fill:#E59351;}
	.st13{fill:#F6C482;}
	.st14{fill:#CB794D;}
	.st15{fill:#DF9F61;}
	.st16{fill:url(#XMLID_20_);}
	.st17{fill:#00ACE4;}
	.st18{fill:#0D2C6C;}
</style>
<g id="BACKGROUND" class="st0">
	<rect id="XMLID_1_" x="-121.83" y="-65.7" class="st1" width="750" height="500"/>
</g>
<g id="OBJECTS">
	<g>
		<g>
			<linearGradient id="SVGID_1_" gradientUnits="userSpaceOnUse" x1="266.0903" y1="321.7677" x2="282.2701" y2="77.4531">
				<stop  offset="0" style="stop-color:#31D1D6"/>
				<stop  offset="0.3733" style="stop-color:#32CED8"/>
				<stop  offset="0.6175" style="stop-color:#36C6DF"/>
				<stop  offset="0.824" style="stop-color:#3CB7EB"/>
				<stop  offset="1" style="stop-color:#45A3FA"/>
			</linearGradient>
			<path class="st2" d="M82.33,307.76H30.85c-13.78-14.31-17.46-37.12-9.23-55.2c7.84-17.23,24.69-28.62,34.89-44.57
				c21.78-34.04,11.25-84.75,40.84-112.27c14.79-13.76,36.06-17.73,56.2-19.34c20.14-1.61,40.95-1.56,59.57-9.39
				c22.96-9.65,40.27-30.38,63.93-38.19c26.56-8.77,58.33,2.17,73.85,25.44c9.71,14.56,13.38,32.85,24.86,46.06
				c18.57,21.35,51.29,23.01,74.45,39.27c15.89,11.15,26.61,29.37,28.66,48.67c2.47,23.31-6.38,49.78,7.6,68.59
				c6.81,9.17,17.86,14.35,25.2,23.1c7.32,8.73,9.38,16.68,7.07,27.83H82.33z"/>
			<linearGradient id="SVGID_2_" gradientUnits="userSpaceOnUse" x1="279.2476" y1="321.7677" x2="295.4274" y2="77.4531">
				<stop  offset="0" style="stop-color:#31D1D6"/>
				<stop  offset="0.3733" style="stop-color:#32CED8"/>
				<stop  offset="0.6175" style="stop-color:#36C6DF"/>
				<stop  offset="0.824" style="stop-color:#3CB7EB"/>
				<stop  offset="1" style="stop-color:#45A3FA"/>
			</linearGradient>
			<path class="st3" d="M95.49,307.76H44.01c-13.78-14.31-17.46-37.12-9.23-55.2c7.84-17.23,24.69-28.62,34.89-44.57
				c21.78-34.04,11.25-84.75,40.84-112.27c14.79-13.76,36.06-17.73,56.2-19.34c20.14-1.61,40.95-1.56,59.57-9.39
				c22.96-9.65,40.27-30.38,63.93-38.19c26.56-8.77,58.33,2.17,73.85,25.44c9.71,14.56,13.38,32.85,24.86,46.06
				c18.57,21.35,51.29,23.01,74.45,39.27c15.89,11.15,26.61,29.37,28.66,48.67c2.47,23.31-6.38,49.78,7.6,68.59
				c6.81,9.17,17.86,14.35,25.2,23.1c7.32,8.73,9.38,16.68,7.07,27.83H95.49z"/>
		</g>
		<linearGradient id="SVGID_3_" gradientUnits="userSpaceOnUse" x1="116.8442" y1="132.2706" x2="116.8442" y2="89.6639">
			<stop  offset="0" style="stop-color:#F9E6D9"/>
			<stop  offset="0.121" style="stop-color:#FCF1EA"/>
			<stop  offset="0.2698" style="stop-color:#FEF9F6"/>
			<stop  offset="0.4751" style="stop-color:#FFFEFD"/>
			<stop  offset="1" style="stop-color:#FFFFFF"/>
		</linearGradient>
		<path class="st4" d="M213.98,131.47l-2.12,0.07H20.4l-0.46,0.06c-1.9-12.7,8.04-25.6,20.55-29.02c10.94-2.99,23.74-0.33,32.9-7.02
			c8.21-5.99,10.25-17.19,15.62-25.82c3.34-5.37,8.1-9.85,13.67-12.84c6.98-3.75,15.69-5.06,22.85-1.67
			c12.68,6.02,15.11,22.82,23.59,34.01c1.89,2.5,4.27,4.83,7.3,5.66c2.79,0.77,5.75,0.17,8.61-0.34c9.37-1.65,20.61-1.5,26.44,6.02
			c2.74,3.54,3.72,8.08,5.24,12.28c1.52,4.21,4.01,8.53,8.22,10.04c2.02,0.71,4.31,0.73,6.09,1.92
			C213.16,126.25,213.85,128.8,213.98,131.47z"/>
		<linearGradient id="SVGID_4_" gradientUnits="userSpaceOnUse" x1="408.9476" y1="162.1796" x2="411.6443" y2="120.6515">
			<stop  offset="0" style="stop-color:#F9E6D9"/>
			<stop  offset="0.121" style="stop-color:#FCF1EA"/>
			<stop  offset="0.2698" style="stop-color:#FEF9F6"/>
			<stop  offset="0.4751" style="stop-color:#FFFEFD"/>
			<stop  offset="1" style="stop-color:#FFFFFF"/>
		</linearGradient>
		<path class="st5" d="M521.95,155.64H298.68c-1.78-2.34-2-5.96-0.73-8.74c1.65-3.65,5.09-6.13,8.52-8.19
			c3.43-2.07,7.08-3.97,9.65-7.04c4.93-5.89,4.64-14.34,5.73-21.94c1.28-9.02,5.06-17.95,11.88-24c2.7-2.4,5.83-4.3,9.11-5.82
			c9.35-4.35,20.93-5.44,29.67,0.04c8.36,5.24,12.46,15.21,19.75,21.86c1.72,1.58,3.69,2.99,5.97,3.52
			c6.53,1.5,12.08-4.42,16.98-8.99c6.96-6.49,16.26-11.34,25.7-10.13c11.1,1.44,19.68,10.96,23.89,21.33
			c1.76,4.32,3.1,9.1,6.6,12.17c8.98,7.87,24.14-0.95,34.61,4.77c3.93,2.15,6.56,6.06,8.66,10.02
			C518.17,141.11,520.64,148.27,521.95,155.64z"/>
		<g>
			<linearGradient id="SVGID_5_" gradientUnits="userSpaceOnUse" x1="284.6753" y1="386.1932" x2="285.7539" y2="311.7663">
				<stop  offset="0" style="stop-color:#8AEBD6"/>
				<stop  offset="0.4615" style="stop-color:#89E9D7"/>
				<stop  offset="0.6276" style="stop-color:#84E2DA"/>
				<stop  offset="0.7461" style="stop-color:#7DD7DE"/>
				<stop  offset="0.8419" style="stop-color:#72C6E5"/>
				<stop  offset="0.9229" style="stop-color:#64B0EE"/>
				<stop  offset="0.9944" style="stop-color:#5395F9"/>
				<stop  offset="1" style="stop-color:#5193FA"/>
			</linearGradient>
			<path class="st6" d="M489.93,307.76H88.67c0,0-21.59,14.33,10.51,16.76s82.16,4.72,80.93,15.64
				c-1.24,10.92-30.22,8.76-30.22,28.04c0,19.28,133.7,14.83,133.7,14.83s75.53,0.99,86.29-11.78s-30.45-24.45-22.97-29.48
				c7.48-5.03,61.77,10.07,69.86-2.16c8.09-12.22-1.62-19.96,13.3-21.57S487.41,322.28,489.93,307.76z"/>
			<linearGradient id="SVGID_6_" gradientUnits="userSpaceOnUse" x1="459.5896" y1="381.4167" x2="459.5896" y2="315.8886">
				<stop  offset="0" style="stop-color:#8AEBD6"/>
				<stop  offset="0.4615" style="stop-color:#89E9D7"/>
				<stop  offset="0.6276" style="stop-color:#84E2DA"/>
				<stop  offset="0.7461" style="stop-color:#7DD7DE"/>
				<stop  offset="0.8419" style="stop-color:#72C6E5"/>
				<stop  offset="0.9229" style="stop-color:#64B0EE"/>
				<stop  offset="0.9944" style="stop-color:#5395F9"/>
				<stop  offset="1" style="stop-color:#5193FA"/>
			</linearGradient>
			<ellipse class="st7" cx="459.59" cy="333.15" rx="30.34" ry="8.63"/>
			<linearGradient id="SVGID_7_" gradientUnits="userSpaceOnUse" x1="136.5784" y1="381.4167" x2="136.5784" y2="315.8886">
				<stop  offset="0" style="stop-color:#8AEBD6"/>
				<stop  offset="0.4615" style="stop-color:#89E9D7"/>
				<stop  offset="0.6276" style="stop-color:#84E2DA"/>
				<stop  offset="0.7461" style="stop-color:#7DD7DE"/>
				<stop  offset="0.8419" style="stop-color:#72C6E5"/>
				<stop  offset="0.9229" style="stop-color:#64B0EE"/>
				<stop  offset="0.9944" style="stop-color:#5395F9"/>
				<stop  offset="1" style="stop-color:#5193FA"/>
			</linearGradient>
			<ellipse class="st8" cx="136.58" cy="340.61" rx="26.52" ry="6.56"/>
			<ellipse class="st9" cx="288.57" cy="366.18" rx="30.12" ry="5.8"/>
		</g>
	</g>
	<g>
		<path class="st10" d="M195.41,305.66l73.05-35.93v-78.73l-78.73,28.87v82.25C189.73,305.05,192.79,306.95,195.41,305.66z"/>
		<path class="st11" d="M268.45,347.17l-76.53-37.64c-1.35-0.66-2.2-2.03-2.2-3.53v-86.13l78.73,28.87V347.17z"/>
		<path class="st12" d="M341.51,305.66l-73.05-35.93v-78.73l78.73,28.87v82.25C347.18,305.05,344.12,306.95,341.51,305.66z"/>
		<polygon class="st13" points="298.3,161.16 268.46,191.01 347.18,219.88 377.06,189.75 		"/>
		<polygon class="st13" points="159.86,189.75 189.73,219.88 268.46,191.01 238.61,161.16 		"/>
		<path class="st13" d="M268.45,347.17l76.53-37.64c1.35-0.66,2.2-2.03,2.2-3.53v-86.13l-78.73,28.87V347.17z"/>
		<path class="st14" d="M229.02,313.89l-31.21-14.07c-1.08-0.49-1.95-1.76-1.95-2.85V280.9c0-1.09,0.87-1.58,1.95-1.09l31.21,14.07
			c1.08,0.49,1.95,1.76,1.95,2.85v16.08C230.97,313.89,230.1,314.38,229.02,313.89z"/>
		<g>
			<polygon class="st15" points="176.55,186.92 254.46,215.57 268.45,248.74 189.74,219.88 			"/>
		</g>
		<polygon class="st15" points="360.35,186.92 360.02,187.74 347.17,219.88 269.3,248.44 268.47,248.75 268.46,248.75 
			282.45,215.57 		"/>
		<g>
			<polygon class="st14" points="267.81,248.51 268.26,248.32 268.88,248.06 255.07,215.32 254.46,215.57 253.85,215.83 
				267.62,248.44 			"/>
		</g>
		<g>
			<polygon class="st13" points="253.85,215.83 176.32,187.54 176.78,186.3 255.07,215.32 			"/>
		</g>
		<g>
			<polygon class="st13" points="360.58,187.54 360.02,187.74 282.95,216.09 269.3,248.44 268.47,248.75 268.46,248.75 
				267.85,248.48 281.94,215.05 360.13,186.3 360.35,186.92 			"/>
		</g>
	</g>
	<g id="XMLID_16_">
		
			<linearGradient id="XMLID_20_" gradientUnits="userSpaceOnUse" x1="277.7092" y1="282.8356" x2="305.5665" y2="282.8356" gradientTransform="matrix(0.9503 -0.3115 0.3125 0.9534 -73.182 109.6743)">
			<stop  offset="0.3436" style="stop-color:#0D2C6C"/>
			<stop  offset="0.3956" style="stop-color:#0C3878"/>
			<stop  offset="0.682" style="stop-color:#0577B7"/>
			<stop  offset="0.8913" style="stop-color:#029EDF"/>
			<stop  offset="1" style="stop-color:#00ADEE"/>
		</linearGradient>
		<path id="XMLID_14_" class="st16" d="M295.86,281.59c1.98-5.92-2.04-7.6-7.19-5.77c-4.65,1.77-8.42,4.63-12.44,8.27l0.41,0.4
			c4.9-3.92,11.08-6.79,11.76-4.9c0.55,1.47-4.58,6.64-7.33,9.19l5.78,5.55c1.75-1.61,4.98-5.11,7.19-8.6
			c1.35-0.73,2.39-1.09,2.69-0.35c0.58,1.33-5.05,8.33-7.86,10.89l5.63,5.4c2.29-2.17,8.43-8.08,10.54-14.96
			C306.43,281.69,303.25,277.66,295.86,281.59z"/>
		<g id="XMLID_44_">
			<g>
				<path id="XMLID_86_" class="st17" d="M320.72,283.92l0.49,1.5c-1.01-0.14-1.94-0.07-2.78,0.2c-0.81,0.26-1.36,0.67-1.66,1.22
					c-0.3,0.55-0.35,1.14-0.14,1.77c0.2,0.61,0.58,1.02,1.14,1.26c0.56,0.23,1.19,0.23,1.9,0c0.38-0.12,0.73-0.33,1.06-0.62
					l-0.26-0.8l-0.99,0.33l-0.41-1.26l2.71-0.89l0.92,2.82c-0.18,0.36-0.52,0.72-1.02,1.08c-0.5,0.35-1.02,0.62-1.57,0.8
					c-1.2,0.39-2.29,0.38-3.27-0.03c-0.99-0.41-1.65-1.13-1.98-2.15c-0.34-1.05-0.24-2.03,0.31-2.94c0.55-0.91,1.44-1.57,2.66-1.97
					C318.83,283.91,319.79,283.81,320.72,283.92z"/>
				<path id="XMLID_83_" class="st17" d="M322.26,282.89l3.06-1c0.7-0.23,1.31-0.21,1.86,0.06c0.54,0.27,0.9,0.68,1.08,1.23
					c0.19,0.57,0.15,1.13-0.13,1.67c-0.27,0.54-0.76,0.92-1.45,1.15l-1.36,0.45l0.91,2.77l-1.71,0.56L322.26,282.89z M324.38,283.59
					l0.52,1.6l0.8-0.26c0.71-0.23,0.98-0.62,0.8-1.15c-0.1-0.3-0.26-0.48-0.49-0.53c-0.23-0.05-0.57-0.01-1.03,0.14L324.38,283.59z"
					/>
				<path id="XMLID_79_" class="st17" d="M333.6,279.66l0.44,1.35c-1.05-0.11-1.84-0.08-2.38,0.1c-0.31,0.1-0.54,0.23-0.68,0.4
					c-0.15,0.16-0.19,0.33-0.14,0.5c0.04,0.13,0.15,0.24,0.32,0.31c0.17,0.08,0.54,0.12,1.11,0.14c0.57,0.02,1.03,0.06,1.39,0.12
					c0.36,0.06,0.69,0.2,1.01,0.42c0.32,0.22,0.55,0.55,0.7,1c0.21,0.64,0.13,1.23-0.23,1.76c-0.36,0.54-0.93,0.93-1.72,1.19
					c-0.85,0.28-1.75,0.33-2.7,0.15l-0.49-1.48c0.56,0.16,1.04,0.25,1.44,0.28c0.4,0.02,0.8-0.03,1.2-0.16
					c0.67-0.22,0.94-0.54,0.8-0.97c-0.05-0.14-0.16-0.26-0.34-0.34c-0.18-0.08-0.55-0.13-1.12-0.15c-0.57-0.02-1.04-0.05-1.39-0.11
					s-0.68-0.2-1-0.42c-0.31-0.22-0.55-0.56-0.7-1.02c-0.19-0.59-0.11-1.15,0.24-1.67c0.36-0.52,0.93-0.91,1.73-1.17
					C331.83,279.65,332.67,279.57,333.6,279.66z"/>
			</g>
		</g>
		<g id="XMLID_36_">
			<path id="XMLID_41_" class="st18" d="M328.16,264.96c-0.4,0.13-2.78,0.91-3.02,0.99c-0.23,0.08-0.38,0.29-0.39,0.51
				c-0.01,0.22-0.6,13.07-0.6,13.07l2.36-0.77l0.15-3.29l5.98-1.96l2.05,2.57l2.36-0.77c0,0-8-9.96-8.14-10.12
				C328.78,265.01,328.56,264.83,328.16,264.96z M326.73,273.28c0.22-5.12,0.18-5.48,0.19-5.68c0-0.08,0.04-0.13,0.11-0.15
				c0.07-0.02,0.4-0.13,0.52-0.17c0.12-0.04,0.15,0.01,0.18,0.05c0.95,1.2,3.54,4.46,3.54,4.46L326.73,273.28z"/>
			<path id="XMLID_37_" class="st18" d="M319.92,274.12c0,0,1.06-1.09,0.51-2.77c-0.48-1.48-2.07-3.17-4.66-2.33
				c-1.33,0.43-6.87,2.25-6.87,2.25l3.92,11.97c0,0,6.08-1.99,7.47-2.45c2.16-0.71,2.76-2.52,2.12-4.47
				C321.79,274.37,319.92,274.12,319.92,274.12z M311.7,272.48c0,0,2.99-0.98,4.39-1.44c1.49-0.49,2.02,0.43,2.21,1
				c0.19,0.58,0.3,1.7-1.2,2.19c-0.22,0.07-4.35,1.43-4.35,1.43L311.7,272.48z M319.06,279.07c-1.51,0.49-4.7,1.54-4.7,1.54l-1-3.04
				c0,0,4.47-1.47,4.71-1.54c1.44-0.47,1.99,0.43,2.2,1.05C320.46,277.66,320.47,278.61,319.06,279.07z"/>
		</g>
		<g id="XMLID_2_">
			<g>
				<path id="XMLID_90_" class="st17" d="M306.33,290.56c-0.69,0.23-1.06,0.97-0.84,1.66c0.23,0.69,0.96,1.06,1.65,0.84
					c0.69-0.22,1.06-0.96,0.84-1.65C307.76,290.71,307.02,290.33,306.33,290.56z M307.08,292.83c-0.57,0.19-1.18-0.12-1.36-0.69
					c-0.19-0.57,0.12-1.18,0.69-1.37c0.57-0.19,1.17,0.13,1.36,0.7C307.95,292.03,307.64,292.65,307.08,292.83z"/>
				<g id="XMLID_80_">
					<path id="XMLID_81_" class="st17" d="M306.4,292.61l-0.44-1.35l0.57-0.19c0.14-0.05,0.25-0.07,0.32-0.07
						c0.07,0,0.14,0.03,0.2,0.08c0.06,0.05,0.1,0.11,0.13,0.19c0.03,0.1,0.03,0.19-0.01,0.28c-0.04,0.08-0.11,0.16-0.22,0.21
						c0.07,0.02,0.13,0.04,0.18,0.06c0.06,0.03,0.13,0.09,0.23,0.17l0.25,0.21l-0.32,0.11l-0.29-0.23
						c-0.11-0.08-0.18-0.13-0.21-0.15c-0.04-0.02-0.07-0.03-0.1-0.03c-0.03,0-0.08,0.01-0.14,0.03l-0.05,0.02l0.19,0.56
						L306.4,292.61z M306.42,291.74l0.2-0.07c0.13-0.04,0.21-0.08,0.24-0.1c0.03-0.02,0.05-0.05,0.06-0.08
						c0.01-0.03,0.01-0.07,0-0.11c-0.01-0.05-0.04-0.08-0.07-0.1c-0.03-0.02-0.07-0.03-0.12-0.02c-0.03,0.01-0.09,0.03-0.2,0.06
						l-0.21,0.07L306.42,291.74z"/>
				</g>
			</g>
		</g>
	</g>
</g>
<g id="DESIGNED_BY_FREEPIK">
</g>
</svg>
